# xmcd CD database file
#
# Track frame offsets:
#	150
#	13382
#	28620
#	43420
#	58577
#	72192
#	85652
#	99970
#	115215
#	127852
#	138565
#	149547
#	161295
#	175907
#	189267
#
# Disc length: 2704 seconds
#
# Revision: 0
# Processed by: cddbd v1.5.1PL0 Copyright (c) Steve Scherf et al.
# Submitted via: CDex 1.50
#
DISCID=cb0a8e0f
DTITLE=Lester Young - Timeless Lester Young
DYEAR=2003
DGENRE=Jazz
TTITLE0=Indiana
TTITLE1=Blue Lester
TTITLE2=Jump, Lester, Jump
TTITLE3=Ghost Of A Chance
TTITLE4=Basic English
TTITLE5=These Foolish Things (Remind Me Of You)
TTITLE6=Exercise In Swing
TTITLE7=Salute To Fats
TTITLE8=Crazy Over J-Z
TTITLE9=Blues 'n' Bells
TTITLE10=Ding Dong
TTITLE11=June Bug
TTITLE12=Circus In Rhythm
TTITLE13=Poor Little Plaything
TTITLE14=Tush
EXTD=YEAR: 2003
EXTT0=
EXTT1=
EXTT2=
EXTT3=
EXTT4=
EXTT5=
EXTT6=
EXTT7=
EXTT8=
EXTT9=
EXTT10=
EXTT11=
EXTT12=
EXTT13=
EXTT14=
PLAYORDER=
